<svg width="22" height="22" viewBox="0 0 58 63" fill="none" xmlns="http://www.w3.org/2000/svg">
<path d="M9.68781 53.2798C7.89158 53.2798 6.21314 52.6612 5.00584 51.5128C3.47462 50.0699 2.73846 47.8908 3.00348 45.5351L4.093 35.9945C4.29912 34.1983 5.38864 31.8131 6.65484 30.5175L30.8304 4.92868C36.8669 -1.46119 43.1684 -1.63787 49.5583 4.39865C55.9482 10.4352 56.1248 16.7367 50.0883 23.1266L25.9128 48.7153C24.6761 50.0404 22.3792 51.2772 20.583 51.5719L11.1012 53.1912C10.6007 53.2206 10.159 53.2798 9.68781 53.2798ZM40.2827 4.3692C38.0153 4.3692 36.0424 5.78263 34.04 7.90277L9.86449 33.5213C9.27556 34.1397 8.5983 35.612 8.48051 36.4659L7.391 46.0063C7.27321 46.978 7.50878 47.7731 8.03882 48.2736C8.56885 48.7742 9.3639 48.9509 10.3356 48.8037L19.8174 47.1844C20.6713 47.0372 22.0848 46.2713 22.6737 45.6529L46.8492 20.0641C50.5006 16.1772 51.8257 12.5847 46.4959 7.57886C44.1401 5.31149 42.1083 4.3692 40.2827 4.3692Z" fill="rgb(186 217 252)"/>
<path d="M44.4358 28.0434C44.3769 28.0434 44.2885 28.0434 44.2296 28.0434C35.0424 27.1305 27.6513 20.1519 26.2379 11.0235C26.0612 9.8162 26.8857 8.69724 28.093 8.49111C29.3003 8.31443 30.4193 9.13893 30.6254 10.3462C31.7444 17.4723 37.5159 22.9493 44.7008 23.656C45.9081 23.7738 46.7915 24.8633 46.6737 26.0705C46.5265 27.1894 45.5547 28.0434 44.4358 28.0434Z" fill="rgb(186 217 252)"/>
<path d="M55.212 62.7907H2.20848C1.00118 62.7907 0 61.7896 0 60.5823C0 59.375 1.00118 58.3738 2.20848 58.3738H55.212C56.4193 58.3738 57.4205 59.375 57.4205 60.5823C57.4205 61.7896 56.4193 62.7907 55.212 62.7907Z" fill="rgb(186 217 252)"/>
</svg>
