<svg width="19" height="19" viewBox="0 0 19 19" fill="none" xmlns="http://www.w3.org/2000/svg">
<path d="M12.825 7.91675C12.825 7.91675 12.6666 8.70841 10.2916 11.8751C7.9958 14.8834 11.3208 17.1001 11.7166 17.4167H11.7958C12.2708 17.0209 18.2875 13.2209 12.825 7.91675Z" stroke="#B0B4C2" stroke-width="1.5" stroke-miterlimit="10" stroke-linecap="round" stroke-linejoin="round"/>
<path d="M10.925 6.17494C10.925 4.35411 10.2125 2.69161 9.50001 1.74161C9.26251 1.50411 8.86668 1.58328 8.78751 1.89994C8.47084 3.08744 7.52084 5.62077 5.22501 8.62911C2.29584 12.4291 4.98751 16.5458 7.75834 17.3374C9.26251 17.7333 7.36251 16.5458 7.12501 14.0916C6.88751 11.0041 10.925 8.70828 10.925 6.17494Z" stroke="#B0B4C2" stroke-width="1.5" stroke-miterlimit="10" stroke-linecap="round" stroke-linejoin="round"/>
</svg>
